<svg version="1.1" xmlns="http://www.w3.org/2000/svg" xmlns:xlink="http://www.w3.org/1999/xlink" width="188.65247" height="58.23273" viewBox="0,0,188.65247,58.23273"><defs><linearGradient x1="95.33379" y1="455.98171" x2="283.97829" y2="455.98171" gradientUnits="userSpaceOnUse" id="color-1"><stop offset="0" stop-color="#000000"/><stop offset="1" stop-color="#005cff"/></linearGradient><linearGradient x1="102.41176" y1="455.98171" x2="276.89796" y2="455.98171" gradientUnits="userSpaceOnUse" id="color-2"><stop offset="0" stop-color="#ff0000"/><stop offset="1" stop-color="#005cff"/></linearGradient></defs><g transform="translate(-95.33003,-426.86512)"><g stroke="none" stroke-miterlimit="10"><path d="M283.97891,455.98093c0.29724,16.05529 -17.89945,29.11692 -40.56047,29.11692h-106.44782c-22.66102,0 -41.33974,-13.06052 -41.637,-29.11692c-0.29722,-16.05418 17.89633,-29.11581 40.55892,-29.11581h106.44782c22.66102,0 41.34133,13.06163 41.63855,29.11581z" fill="url(#color-1)"/><path d="M276.89842,455.98093c0.24643,13.3111 -14.78376,24.10187 -33.57283,24.10187h-106.44782c-18.78907,0 -34.22038,-10.79077 -34.46681,-24.10187v0c-0.10246,-5.53445 2.43666,-10.63334 6.78911,-14.70198c6.11489,-5.71616 15.80895,-9.39879 26.78531,-9.39879h106.44782c18.78907,0 34.21881,10.79077 34.46522,24.10076z" fill="url(#color-2)"/><text transform="translate(161.69838,443.32278) scale(0.4375,0.32947) skewX(0.69223)" font-size="40" xml:space="preserve" fill="#000000" font-family="Sans Serif" font-weight="normal" text-anchor="start"><tspan x="0" dy="0">шифр</tspan></text><text transform="translate(142.26526,474.52711) scale(0.55213,0.39116) skewX(0.75143)" font-size="40" xml:space="preserve" fill="#000000" font-family="Sans Serif" font-weight="normal" text-anchor="start"><tspan x="0" dy="0"> +999999</tspan></text><text transform="translate(119.33318,455.9873) scale(0.3305,0.3305)" font-size="40" xml:space="preserve" fill="#000000" font-family="Sans Serif" font-weight="normal" text-anchor="start"><tspan x="0" dy="0">Веди секретный код!</tspan></text></g></g></svg>