<svg version="1.1" xmlns="http://www.w3.org/2000/svg" xmlns:xlink="http://www.w3.org/1999/xlink" width="124.50609" height="41.45194" viewBox="0,0,124.50609,41.45194"><defs><linearGradient x1="126.38702" y1="315.38595" x2="250.89258" y2="315.38595" gradientUnits="userSpaceOnUse" id="color-1"><stop offset="0" stop-color="#005cff"/><stop offset="1" stop-color="#e02626"/></linearGradient><radialGradient cx="188.63892" cy="315.71168" r="57.58095" gradientUnits="userSpaceOnUse" id="color-2"><stop offset="0" stop-color="#005cff"/><stop offset="1" stop-color="#de2527"/></radialGradient></defs><g transform="translate(-126.38691,-294.65981)"><g stroke="none" stroke-miterlimit="10"><path d="M250.893,315.38538c0,11.42867 -12.16943,20.72637 -27.12573,20.72637h-70.25567c-14.95629,0 -27.12469,-9.29691 -27.12469,-20.72637c0,-11.42788 12.16736,-20.72557 27.12469,-20.72557h70.25567c14.95629,0 27.12573,9.29769 27.12573,20.72557z" fill="url(#color-1)"/><path d="M246.21987,315.71134c0,8.23305 -10.05179,14.90724 -22.4526,14.90724h-70.25567c-12.40081,0 -22.45363,-6.67419 -22.45363,-14.90724v0c0,-8.23235 10.05283,-14.90655 22.45363,-14.90655h70.25567c12.40081,0 22.4526,6.67419 22.4526,14.90655z" fill="url(#color-2)"/><text transform="translate(127.03052,324.56333) scale(0.28383,0.25389)" font-size="40" xml:space="preserve" fill="#000000" font-family="Sans Serif" font-weight="normal" text-anchor="start"><tspan x="0" dy="0">от:1.000 до:10.000.000</tspan></text><text transform="translate(131.63106,308.0165) scale(0.27925,0.22151)" font-size="40" xml:space="preserve" fill="#000000" font-family="Sans Serif" font-weight="normal" text-anchor="start"><tspan x="0" dy="0">ежедневная награда</tspan></text></g></g></svg>